<svg height="512pt" viewBox="-24 0 512 512" width="512pt" xmlns="http://www.w3.org/2000/svg"><path d="m464.070312 469.691406-6.746093-67.097656c-.414063-4.121094-4.097657-7.117188-8.210938-6.710938-4.125.414063-7.128906 4.089844-6.714843 8.210938l3.175781 31.582031h-72.78125c-2.121094 0-4.144531.894531-5.566407 2.46875-1.421874 1.574219-2.109374 3.675781-1.894531 5.789063l5.398438 53.066406h-54.554688c-.820312-15.546875-8.324219-24.597656-19.269531-28.5625 9.417969-3.53125 15.8125-11.945312 15.8125-26.242188 0-21.535156-14.46875-29.609374-34.148438-29.609374-19.683593 0-34.152343 8.074218-34.152343 29.609374 0 14.296876 6.394531 22.710938 15.644531 26.242188-10.945312 3.964844-18.449219 13.015625-19.269531 28.5625h-15.71875v-.972656c0-26.246094-15.476563-34.320313-34.320313-34.320313-9.421875 0-17.832031 2.523438-23.550781 9.589844v-21.195313c0-14.804687 7.570313-21.703124 20.523437-21.703124 10.765626 0 19.683594 5.71875 19.683594 14.972656 0 5.382812 4.371094 6.730468 9.253906 6.730468 5.546876 0 8.410157-1.851562 8.410157-7.570312 0-14.300781-11.777344-29.945312-37.011719-29.945312-21.699219 0-38.523438 10.261718-38.523438 37.515624v46.898438h-55.992187l5.398437-53.066406c.214844-2.109375-.476562-4.214844-1.898437-5.789063s-3.441406-2.46875-5.5625-2.46875h-72.785156l8.953125-89.050781c2.945312-28.132812 26.441406-49.363281 54.703125-49.476562l53.550781 3.289062 40.957031 56.394531c.039063.050781.074219.101563.113281.148438 12.6875 16.585937 31.941407 26.09375 52.824219 26.09375 20.859375 0 40.097657-9.492188 52.785157-26.042969l44.78125-56.53125 54.550781-3.351562c28.261719.113281 51.757812 21.34375 54.699219 49.445312l2.785156 27.6875c.386718 3.867188 3.644531 6.75 7.453125 6.75.25 0 .503906-.011719.757812-.039062 4.121094-.414063 7.125-4.089844 6.710938-8.210938l-2.785157-27.71875c-3.753906-35.867188-33.78125-62.914062-69.84375-62.914062-.152343 0-.304687.003906-.460937.015624l-80.550781 4.945313c-5.507813-.09375-10.144532-4.070313-11.066406-9.523437l-3.121094-18.472657c4.738281-2.984375 9.328125-6.382812 13.757812-10.199219 17.8125-15.335937 28.996094-37.511718 31.320313-61.6875 13.015625-.394531 23.480469-11.105468 23.480469-24.210937v-18.53125c0-7.429687-3.363282-14.296875-9.011719-18.84375v-44.90625c0-8.710937-1.382813-17.246094-4.109375-25.445313 10.769531-10.941406 17.425781-25.949218 17.425781-42.480468 0-7.0625-5.746094-12.808594-12.808594-12.808594h-147.585937c-36.480469 0-68.550782 24.585938-77.988282 59.78125-1.070312 4.003906 1.300782 8.117188 5.304688 9.1875s8.113281-1.300781 9.183594-5.300781c7.683594-28.65625 33.792968-48.667969 63.5-48.667969h145.34375c-1.148438 24.128906-21.140625 43.40625-45.546875 43.40625h-122.050781c-16.628907.011719-30.160157 13.554688-30.160157 30.183594v38.753906c-4.675781-2.53125-9.484375-3.832031-13.320312-4.5v-31.117188c0-4.144531-3.359375-7.5-7.5-7.5s-7.5 3.355469-7.5 7.5v33.914063c-5.648438 4.542969-9.011719 11.414063-9.011719 18.84375v18.53125c0 13.105469 10.464844 23.816406 23.480469 24.210937 2.324219 24.171876 13.507812 46.351563 31.320312 61.6875 4.429688 3.8125 9.015625 7.214844 13.757813 10.195313l-3.121094 18.476563c-.921875 5.453124-5.558594 9.429687-11.070312 9.523437l-80.546876-4.949219c-.152343-.007812-.308593-.011718-.460937-.011718-36.0625 0-66.089844 27.046874-69.847656 62.945312l-12.523438 124.566406c-1.128906 10.789063 2.386719 21.597656 9.648438 29.65625 7.257812 8.0625 17.640625 12.683594 28.488281 12.683594h387.585938c10.84375 0 21.230468-4.621094 28.488281-12.683594 7.261719-8.058594 10.777343-18.867187 9.652343-29.625zm-134.882812-404.492187c1.234375 5.0625 1.855469 10.261719 1.855469 15.535156v42.105469c-3.835938.671875-8.644531 1.972656-13.320313 4.503906v-38.753906c0-6.203125-1.882812-11.980469-5.109375-16.78125 5.902344-1.386719 11.472657-3.636719 16.574219-6.609375zm-155.382812 172.347656c-16.378907-14.105469-26.054688-35.234375-26.539063-57.972656-.089844-4.078125-3.417969-7.339844-7.5-7.339844h-6.324219c-5.085937 0-9.222656-4.136719-9.222656-9.222656v-18.53125c0-2.867188 1.324219-5.519531 3.539062-7.25 3.445313.285156 10.925782 1.476562 15.910157 6.410156 2.003906 1.984375 4.65625 3.035156 7.359375 3.035156 1.363281 0 2.738281-.269531 4.050781-.816406 3.933594-1.636719 6.472656-5.449219 6.472656-9.707031v-47.5625c0-8.367188 6.808594-15.179688 15.167969-15.183594h110.820312c8.371094 0 15.183594 6.8125 15.183594 15.183594v47.566406c0 4.253906 2.539063 8.066406 6.472656 9.707031 1.3125.546875 2.6875.8125 4.046876.8125 2.707031 0 5.359374-1.050781 7.359374-3.03125 4.980469-4.929687 12.46875-6.125 15.914063-6.414062 2.214844 1.730469 3.539063 4.382812 3.539063 7.253906v18.53125c0 5.082031-4.136719 9.222656-9.222657 9.222656h-6.324219c-4.082031 0-7.410156 3.257813-7.5 7.335938-.488281 22.742187-10.160156 43.871093-26.539062 57.972656-16.96875 14.609375-36.59375 22.148437-58.332031 22.410156-21.738281-.261719-41.367188-7.800781-58.332031-22.410156zm105.988281 54.09375-30.359375 39.941406c-4.71875 6.164063-11.871094 9.695313-19.632813 9.695313-7.757812 0-14.914062-3.53125-19.628906-9.695313l-28.296875-36.984375c3.878906-3.792968 6.605469-8.800781 7.570312-14.511718l2.296876-13.585938c12.570312 5.464844 26.042968 8.296875 40.3125 8.457031h.082031.082031c14.269531-.160156 27.742188-2.992187 40.3125-8.457031l2.296875 13.585938c.730469 4.328124 2.476563 8.253906 4.964844 11.554687zm-116.867188 10.457031c.152344.007813.308594.011719.460938.011719 1.703125 0 3.371093-.160156 4.992187-.464844l29.878906 39.050781c7.578126 9.90625 19.074219 15.585938 31.542969 15.585938s23.964844-5.679688 31.558594-15.601562l30.507813-40.136719c2.824218 1.015625 5.863281 1.570312 9.019531 1.570312.152343 0 .308593-.007812.460937-.015625l5.90625-.363281-36.464844 46.03125c-.023437.035156-.050781.066406-.078124.101563-9.824219 12.84375-24.738282 20.210937-40.910157 20.210937-16.140625 0-31.027343-7.339844-40.855469-20.136719l-33.632812-46.308594zm-84.457031 194.902344h-40.125c-6.699219 0-12.859375-2.742188-17.34375-7.722656-4.484375-4.976563-6.570312-11.390625-5.871094-18.085938l2.0625-20.515625h65.988282zm88.734375 0v-1.308594c0-14.300781 7.90625-19.683594 20.019531-19.683594 12.558594 0 19.949219 5.835938 20.015625 20.992188zm111.363281-69.609375c10.597656 0 16.824219 4.878906 16.824219 16.824219 0 12.109375-6.226563 16.988281-16.824219 16.988281s-16.820312-4.878906-16.820312-16.988281c0-11.945313 6.222656-16.824219 16.820312-16.824219zm-20.019531 69.609375c.015625-14.441406 7.582031-20.992188 20.019531-20.992188s19.839844 6.550782 19.851563 20.992188zm184.726563-7.722656c-4.484376 4.980468-10.644532 7.722656-17.34375 7.722656h-40.125l-4.710938-46.324219h65.988281l2.066407 20.546875c.695312 6.664063-1.390626 13.078125-5.875 18.054688zm0 0"/></svg>