<svg id="Capa_1" enable-background="new 0 0 512 512" height="512" viewBox="0 0 512 512" width="512" xmlns="http://www.w3.org/2000/svg"><g><path d="m504.5 401.627c-4.143 0-7.5 3.358-7.5 7.5v44.873c0 1.378-1.121 2.5-2.5 2.5h-270.819c-4.143 0-7.5 3.358-7.5 7.5s3.357 7.5 7.5 7.5h270.819c9.649 0 17.5-7.851 17.5-17.5v-44.873c0-4.142-3.357-7.5-7.5-7.5z"/><path d="m512 88c0-9.649-7.851-17.5-17.5-17.5h-36v-7.5c0-12.407-10.094-22.5-22.5-22.5s-22.5 10.093-22.5 22.5v7.5h-45v-7.5c0-12.407-10.094-22.5-22.5-22.5s-22.5 10.093-22.5 22.5v7.5h-45v-7.5c0-12.407-10.094-22.5-22.5-22.5s-22.5 10.093-22.5 22.5v7.5h-45v-7.5c0-12.407-10.094-22.5-22.5-22.5s-22.5 10.093-22.5 22.5v7.5h-45v-7.5c0-12.407-10.094-22.5-22.5-22.5s-22.5 10.093-22.5 22.5v7.5h-36c-9.649 0-17.5 7.851-17.5 17.5v366c0 9.649 7.851 17.5 17.5 17.5h171.33c4.143 0 7.5-3.358 7.5-7.5s-3.357-7.5-7.5-7.5h-171.33c-1.379 0-2.5-1.122-2.5-2.5v-303.5h15v103.075c0 4.142 3.357 7.5 7.5 7.5s7.5-3.358 7.5-7.5v-103.075h327.83c4.143 0 7.5-3.358 7.5-7.5s-3.357-7.5-7.5-7.5h-357.83v-47.5c0-1.378 1.121-2.5 2.5-2.5h36v7.5c0 12.407 10.094 22.5 22.5 22.5s22.5-10.093 22.5-22.5v-7.5h45v7.5c0 12.407 10.094 22.5 22.5 22.5s22.5-10.093 22.5-22.5v-7.5h45v7.5c0 12.407 10.094 22.5 22.5 22.5s22.5-10.093 22.5-22.5v-7.5h45v7.5c0 12.407 10.094 22.5 22.5 22.5s22.5-10.093 22.5-22.5v-7.5h45v7.5c0 12.407 10.094 22.5 22.5 22.5s22.5-10.093 22.5-22.5v-7.5h36c1.379 0 2.5 1.122 2.5 2.5v47.5h-89.191c-4.143 0-7.5 3.358-7.5 7.5s3.357 7.5 7.5 7.5h59.191v179.458h-48.5c-9.649 0-17.5 7.851-17.5 17.5v48.867h-353.5c-1.379 0-2.5-1.122-2.5-2.5v-105.336c0-4.142-3.357-7.5-7.5-7.5s-7.5 3.358-7.5 7.5v105.335c0 9.649 7.851 17.5 17.5 17.5h357.857c4.675 0 9.07-1.821 12.375-5.126l59.143-59.143c3.305-3.306 5.125-7.7 5.125-12.374v-184.181h15v223.776c0 4.142 3.357 7.5 7.5 7.5s7.5-3.358 7.5-7.5c0-40.944 0-250.519 0-286.276zm-428.5 5c0 4.136-3.364 7.5-7.5 7.5s-7.5-3.364-7.5-7.5v-30c0-4.136 3.364-7.5 7.5-7.5s7.5 3.364 7.5 7.5zm90 0c0 4.136-3.364 7.5-7.5 7.5s-7.5-3.364-7.5-7.5v-30c0-4.136 3.364-7.5 7.5-7.5s7.5 3.364 7.5 7.5zm90 0c0 4.136-3.364 7.5-7.5 7.5s-7.5-3.364-7.5-7.5v-30c0-4.136 3.364-7.5 7.5-7.5s7.5 3.364 7.5 7.5zm90 0c0 4.136-3.364 7.5-7.5 7.5s-7.5-3.364-7.5-7.5v-30c0-4.136 3.364-7.5 7.5-7.5s7.5 3.364 7.5 7.5zm90 0c0 4.136-3.364 7.5-7.5 7.5s-7.5-3.364-7.5-7.5v-30c0-4.136 3.364-7.5 7.5-7.5s7.5 3.364 7.5 7.5zm-27.5 293.718v-39.26c0-1.378 1.121-2.5 2.5-2.5h39.26z"/><path d="m37.5 426.5c-4.143 0-7.5 3.358-7.5 7.5s3.357 7.5 7.5 7.5h80c4.143 0 7.5-3.358 7.5-7.5s-3.357-7.5-7.5-7.5z"/><path d="m473.5 441.5c4.143 0 7.5-3.358 7.5-7.5s-3.357-7.5-7.5-7.5h-80c-4.143 0-7.5 3.358-7.5 7.5s3.357 7.5 7.5 7.5z"/><path d="m111 190.5c4.143 0 7.5-3.358 7.5-7.5s-3.357-7.5-7.5-7.5h-30c-4.143 0-7.5 3.358-7.5 7.5s3.357 7.5 7.5 7.5z"/><path d="m191 190.5c4.143 0 7.5-3.358 7.5-7.5s-3.357-7.5-7.5-7.5h-30c-4.143 0-7.5 3.358-7.5 7.5s3.357 7.5 7.5 7.5z"/><path d="m271 190.5c4.143 0 7.5-3.358 7.5-7.5s-3.357-7.5-7.5-7.5h-30c-4.143 0-7.5 3.358-7.5 7.5s3.357 7.5 7.5 7.5z"/><path d="m351 190.5c4.143 0 7.5-3.358 7.5-7.5s-3.357-7.5-7.5-7.5h-30c-4.143 0-7.5 3.358-7.5 7.5s3.357 7.5 7.5 7.5z"/><path d="m431 190.5c4.143 0 7.5-3.358 7.5-7.5s-3.357-7.5-7.5-7.5h-30c-4.143 0-7.5 3.358-7.5 7.5s3.357 7.5 7.5 7.5z"/><path d="m96 254.958c9.777 0 18.114-6.271 21.21-15h197.58c3.096 8.729 11.433 15 21.21 15 12.406 0 22.5-10.093 22.5-22.5s-10.094-22.5-22.5-22.5c-9.777 0-18.114 6.271-21.21 15h-197.58c-3.096-8.729-11.433-15-21.21-15-12.406 0-22.5 10.093-22.5 22.5s10.094 22.5 22.5 22.5zm240-30c4.136 0 7.5 3.364 7.5 7.5s-3.364 7.5-7.5 7.5-7.5-3.364-7.5-7.5 3.364-7.5 7.5-7.5zm-240 0c4.136 0 7.5 3.364 7.5 7.5s-3.364 7.5-7.5 7.5-7.5-3.364-7.5-7.5 3.364-7.5 7.5-7.5z"/><path d="m256 374.958c9.777 0 18.114-6.271 21.21-15h37.58c3.096 8.729 11.433 15 21.21 15 12.406 0 22.5-10.093 22.5-22.5s-10.094-22.5-22.5-22.5c-9.777 0-18.114 6.271-21.21 15h-37.58c-3.096-8.729-11.433-15-21.21-15-12.406 0-22.5 10.093-22.5 22.5s10.094 22.5 22.5 22.5zm80-30c4.136 0 7.5 3.364 7.5 7.5s-3.364 7.5-7.5 7.5-7.5-3.364-7.5-7.5 3.364-7.5 7.5-7.5zm-80 0c4.136 0 7.5 3.364 7.5 7.5s-3.364 7.5-7.5 7.5-7.5-3.364-7.5-7.5 3.364-7.5 7.5-7.5z"/><path d="m393.5 244.458c0 5.79 4.71 10.5 10.5 10.5h24c5.79 0 10.5-4.71 10.5-10.5v-24c0-5.79-4.71-10.5-10.5-10.5h-24c-5.79 0-10.5 4.71-10.5 10.5zm15-19.5h15v15h-15z"/><path d="m393.5 304.458c0 5.79 4.71 10.5 10.5 10.5h24c5.79 0 10.5-4.71 10.5-10.5v-24c0-5.79-4.71-10.5-10.5-10.5h-24c-5.79 0-10.5 4.71-10.5 10.5zm15-19.5h15v15h-15z"/><path d="m358.5 280.458c0-5.79-4.71-10.5-10.5-10.5h-24c-5.79 0-10.5 4.71-10.5 10.5v24c0 5.79 4.71 10.5 10.5 10.5h24c5.79 0 10.5-4.71 10.5-10.5zm-15 19.5h-15v-15h15z"/><path d="m73.5 304.458c0 5.79 4.71 10.5 10.5 10.5h24c5.79 0 10.5-4.71 10.5-10.5v-24c0-5.79-4.71-10.5-10.5-10.5h-24c-5.79 0-10.5 4.71-10.5 10.5zm15-19.5h15v15h-15z"/><path d="m198.5 280.458c0-5.79-4.71-10.5-10.5-10.5h-24c-5.79 0-10.5 4.71-10.5 10.5v24c0 5.79 4.71 10.5 10.5 10.5h24c5.79 0 10.5-4.71 10.5-10.5zm-15 19.5h-15v-15h15z"/><path d="m73.5 364.458c0 5.79 4.71 10.5 10.5 10.5h24c5.79 0 10.5-4.71 10.5-10.5v-24c0-5.79-4.71-10.5-10.5-10.5h-24c-5.79 0-10.5 4.71-10.5 10.5zm15-19.5h15v15h-15z"/><path d="m188 329.958h-24c-5.79 0-10.5 4.71-10.5 10.5v24c0 5.79 4.71 10.5 10.5 10.5h24c5.79 0 10.5-4.71 10.5-10.5v-24c0-5.79-4.71-10.5-10.5-10.5zm-4.5 30h-15v-15h15z"/><path d="m268 314.958c5.79 0 10.5-4.71 10.5-10.5v-24c0-5.79-4.71-10.5-10.5-10.5h-24c-5.79 0-10.5 4.71-10.5 10.5v24c0 5.79 4.71 10.5 10.5 10.5zm-19.5-30h15v15h-15z"/></g></svg>